HIERARCHY
ROOT Hips
{
	OFFSET 0.000000 0.000000 0.000000
	CHANNELS 6 Xposition Yposition Zposition Zrotation Yrotation Xrotation 
	JOINT LHipJoint
	{
		OFFSET 0.000000 0.000000 0.000000
		CHANNELS 3 Zrotation Yrotation Xrotation
		JOINT LeftUpLeg
		{
			OFFSET 1.363060 -1.794630 0.839290
			CHANNELS 3 Zrotation Yrotation Xrotation
			JOINT LeftLeg
			{
				OFFSET 2.448110 -6.726130 0.000000
				CHANNELS 3 Zrotation Yrotation Xrotation
				JOINT LeftFoot
				{
					OFFSET 2.562200 -7.039590 0.000000
					CHANNELS 3 Zrotation Yrotation Xrotation
					JOINT LeftToeBase
					{
						OFFSET 0.157640 -0.433110 2.322550
						CHANNELS 3 Zrotation Yrotation Xrotation
						End Site
						{
							OFFSET 0.000000 0.000000 0.000000
						}
					}
				}
			}
		}
	}
	JOINT RHipJoint
	{
		OFFSET 0.000000 0.000000 0.000000
		CHANNELS 3 Zrotation Yrotation Xrotation
		JOINT RightUpLeg
		{
			OFFSET -1.305520 -1.794630 0.839290
			CHANNELS 3 Zrotation Yrotation Xrotation
			JOINT RightLeg
			{
				OFFSET -2.542530 -6.985550 0.000000
				CHANNELS 3 Zrotation Yrotation Xrotation
				JOINT RightFoot
				{
					OFFSET -2.568260 -7.056230 0.000000
					CHANNELS 3 Zrotation Yrotation Xrotation
					JOINT RightToeBase
					{
						OFFSET -0.164730 -0.452590 2.363150
						CHANNELS 3 Zrotation Yrotation Xrotation
						End Site
						{
							OFFSET 0.000000 0.000000 0.000000
						}
					}
				}
			}
		}
	}
	JOINT LowerBack
	{
		OFFSET 0.000000 0.000000 0.000000
		CHANNELS 3 Zrotation Yrotation Xrotation
		JOINT Spine
		{
			OFFSET 0.028270 2.035590 -0.193380
			CHANNELS 3 Zrotation Yrotation Xrotation
			JOINT Spine1
			{
				OFFSET 0.056720 2.048850 -0.042750
				CHANNELS 3 Zrotation Yrotation Xrotation
				JOINT Neck
				{
					OFFSET 0.000000 0.000000 0.000000
					CHANNELS 3 Zrotation Yrotation Xrotation
					JOINT Neck1
					{
						OFFSET -0.054170 1.746240 0.172020
						CHANNELS 3 Zrotation Yrotation Xrotation
						JOINT Head
						{
							OFFSET 0.104070 1.761360 -0.123970
							CHANNELS 3 Zrotation Yrotation Xrotation
							End Site
							{
								OFFSET 0.000000 0.000000 0.000000
							}
						}
					}
				}
				JOINT LeftShoulder
				{
					OFFSET 0.000000 0.000000 0.000000
					CHANNELS 3 Zrotation Yrotation Xrotation
					JOINT LeftArm
					{
						OFFSET 3.362410 1.200890 -0.311210
						CHANNELS 3 Zrotation Yrotation Xrotation
						JOINT LeftForeArm
						{
							OFFSET 4.983000 -0.000000 -0.000000
							CHANNELS 3 Zrotation Yrotation Xrotation
							JOINT LeftHand
							{
								OFFSET 3.483560 -0.000000 -0.000000
								CHANNELS 3 Zrotation Yrotation Xrotation
								JOINT LeftFingerBase
								{
									OFFSET 0.000000 0.000000 0.000000
									CHANNELS 3 Zrotation Yrotation Xrotation
									JOINT LeftHandIndex1
									{
										OFFSET 0.715260 -0.000000 -0.000000
										CHANNELS 3 Zrotation Yrotation Xrotation
										End Site
										{
											OFFSET 0.000000 0.000000 0.000000
										}
									}
								}
								JOINT LThumb
								{
									OFFSET 0.000000 0.000000 0.000000
									CHANNELS 3 Zrotation Yrotation Xrotation
									End Site
									{
										OFFSET 0.000000 0.000000 0.000000
									}
								}
							}
						}
					}
				}
				JOINT RightShoulder
				{
					OFFSET 0.000000 0.000000 0.000000
					CHANNELS 3 Zrotation Yrotation Xrotation
					JOINT RightArm
					{
						OFFSET -3.136600 1.374050 -0.404650
						CHANNELS 3 Zrotation Yrotation Xrotation
						JOINT RightForeArm
						{
							OFFSET -5.241900 -0.000000 -0.000000
							CHANNELS 3 Zrotation Yrotation Xrotation
							JOINT RightHand
							{
								OFFSET -3.444170 -0.000000 -0.000000
								CHANNELS 3 Zrotation Yrotation Xrotation
								JOINT RightFingerBase
								{
									OFFSET 0.000000 0.000000 0.000000
									CHANNELS 3 Zrotation Yrotation Xrotation
									JOINT RightHandIndex1
									{
										OFFSET -0.622530 -0.000000 -0.000000
										CHANNELS 3 Zrotation Yrotation Xrotation
										End Site
										{
											OFFSET 0.000000 0.000000 0.000000
										}
									}
								}
								JOINT RThumb
								{
									OFFSET 0.000000 0.000000 0.000000
									CHANNELS 3 Zrotation Yrotation Xrotation
									End Site
									{
										OFFSET 0.000000 0.000000 0.000000
									}
								}
							}
						}
					}
				}
			}
		}
	}
}
MOTION
Frames: 9
Frame Time: 0.008333
-1.599419 17.004318 -1.283067 11.710463 86.654305 32.087892 -9.860797 1.011551 3.639836 -13.253198 2.669426 -44.587441 -3.423239 0.253104 19.270061 -0.523776 -4.362657 -0.441491 -0.258600 -0.000000 -26.250600 10.252472 -4.735478 0.340092 8.471332 -11.050756 -9.656863 1.707687 -2.061570 29.964175 1.159604 18.207563 12.955163 5.675400 -0.000000 -73.021200 -7.890301 -1.747541 -5.290543 -2.028358 -1.294573 -3.924100 -5.386234 -1.388736 -0.051753 14.295637 -9.679770 -7.210912 -2.082402 -0.163505 0.096528 0.000000 0.000000 0.000000 -1.870288 11.399435 0.495018 -71.340269 23.056961 4.593333 179.940382 -87.106496 179.951745 15.143593 2.791908 0.357406 -0.227519 0.161806 -0.000000 0.000000 0.000000 0.000000 0.000000 0.000000 0.000000 11.460562 -3.705657 1.167450 60.041605 26.570120 38.069015 178.939587 80.159251 -179.957674 4.285937 6.057414 0.248064 0.003016 -0.534479 -0.000000 0.000000 0.000000 0.000000 0.000000 0.000000 0.000000 
-1.421970 16.965597 -1.260425 18.229904 86.734814 38.579619 -9.665292 0.949027 3.552490 -13.488773 2.113092 -44.916550 -3.259741 0.425168 22.113194 -0.394790 -3.673252 -1.574809 -0.135900 0.000000 -23.433400 10.646863 -4.772307 0.244104 7.506104 -11.635857 -10.866434 1.481597 -2.303036 32.833948 1.008136 16.974030 12.866434 5.327300 0.000000 -74.051901 -8.187788 -2.045290 -5.146808 -2.082966 -1.558948 -3.891875 -5.415069 -1.648012 -0.097295 14.493909 -9.537271 -7.147446 -2.053936 -0.161474 0.104836 0.000000 0.000000 0.000000 -2.426896 11.249785 0.596327 -70.286924 22.522117 4.969563 179.912159 -87.914069 179.949996 16.024315 3.188566 0.436450 -0.239912 0.151558 -0.000000 0.000000 0.000000 0.000000 0.000000 0.000000 0.000000 11.450151 -3.699013 1.118118 60.200257 26.739018 37.659392 178.933210 80.035133 -179.958123 4.298412 5.796410 0.238895 0.000764 -0.531692 -0.000000 0.000000 0.000000 0.000000 0.000000 0.000000 0.000000 
-1.249398 16.937720 -1.236800 23.110838 86.563776 43.372482 -9.444558 0.946327 3.455832 -13.752077 1.632481 -44.873317 -3.113755 0.548747 24.433173 -0.242721 -2.875828 -2.725963 -0.032400 -0.000000 -21.477700 11.041690 -4.707631 0.124255 6.482317 -12.112040 -12.027866 1.214541 -2.516853 35.693114 0.822165 15.041381 12.752413 4.760500 -0.000000 -74.685700 -8.467046 -2.257078 -4.953447 -2.141816 -1.739898 -3.854266 -5.458263 -1.823425 -0.147605 14.650734 -9.420134 -7.084510 -2.027896 -0.159536 0.112235 0.000000 0.000000 0.000000 -3.016164 11.139712 0.693124 -69.118051 21.690660 5.531656 179.879445 -88.888679 179.948456 16.843616 3.621547 0.525477 -0.250649 0.141269 -0.000000 0.000000 0.000000 0.000000 0.000000 0.000000 0.000000 11.406679 -3.681326 1.054810 60.527912 26.788549 37.242997 178.944053 80.043981 -179.959249 4.226147 5.458344 0.222149 0.000609 -0.526559 -0.000000 0.000000 0.000000 0.000000 0.000000 0.000000 0.000000 
-1.080839 16.921463 -1.213341 26.199165 86.175193 46.321819 -9.246630 0.981806 3.349665 -14.049693 1.270139 -44.480363 -3.000139 0.623435 26.160506 -0.077548 -2.023151 -3.860641 0.042300 0.000000 -20.439200 11.381510 -4.562483 -0.008439 5.440339 -12.450384 -13.130159 0.923187 -2.702702 38.476371 0.591380 12.439371 12.574518 3.978300 -0.000000 -74.706800 -8.747572 -2.390427 -4.726467 -2.205362 -1.843299 -3.813739 -5.512879 -1.921798 -0.200533 14.771887 -9.334232 -7.023184 -2.005498 -0.157808 0.118827 0.000000 0.000000 0.000000 -3.626201 11.051024 0.785812 -67.884926 20.586762 6.241739 -0.157558 -89.988527 -0.052813 17.552919 4.066791 0.619083 -0.259194 0.131513 -0.000000 0.000000 0.000000 0.000000 0.000000 0.000000 0.000000 11.345874 -3.664510 0.980969 60.984205 26.722742 36.827464 178.970190 80.162396 -179.961168 4.046178 5.060971 0.198229 0.003097 -0.519723 -0.000000 0.000000 0.000000 0.000000 0.000000 0.000000 0.000000 
-0.915418 16.916853 -1.191164 27.729041 85.630425 47.672055 -9.090972 1.034339 3.232339 -14.366079 1.051313 -43.778019 -2.923783 0.650043 27.286898 0.092232 -1.155752 -4.950144 0.084699 0.000000 -20.250800 11.647490 -4.360945 -0.140339 4.428564 -12.636506 -14.173187 0.626238 -2.862952 41.129125 0.304161 9.258607 12.287386 3.004800 0.000001 -73.875900 -9.012262 -2.456886 -4.480617 -2.268233 -1.881894 -3.772044 -5.575901 -1.955945 -0.252615 14.863046 -9.280289 -6.964526 -1.987563 -0.156379 0.124751 0.000000 0.000000 0.000000 -4.238810 10.971130 0.874921 -66.649986 19.240307 7.058401 -0.198978 -88.739449 -0.053815 18.112489 4.498201 0.710170 -0.265266 0.122938 -0.000000 0.000000 0.000000 0.000000 0.000000 0.000000 0.000000 11.280102 -3.656708 0.899023 61.522619 26.550537 36.417975 179.009183 80.363116 -179.963939 3.746338 4.630053 0.169034 0.008379 -0.511926 -0.000000 0.000000 0.000000 0.000000 0.000000 0.000000 0.000000 
-0.752229 16.923342 -1.171033 28.068750 84.981868 47.798826 -8.979133 1.091983 3.102746 -14.679871 0.987300 -42.809137 -2.882696 0.631567 27.839467 0.260754 -0.296767 -5.962644 0.096301 0.000000 -20.773199 11.843017 -4.121210 -0.259616 3.482440 -12.666711 -15.157773 0.339836 -2.999351 43.610765 -0.045966 5.650840 11.843589 1.891000 -0.000000 -72.005300 -9.236378 -2.466956 -4.227930 -2.324432 -1.868049 -3.730366 -5.644305 -1.938046 -0.300158 14.931536 -9.256364 -6.908793 -1.974750 -0.155330 0.130311 0.000000 0.000000 0.000000 -4.828772 10.891671 0.959742 -65.479323 17.692158 7.937162 -0.244929 -87.392431 -0.054597 18.495563 4.888832 0.790942 -0.268810 0.116147 -0.000000 0.000000 0.000000 0.000000 0.000000 0.000000 0.000000 11.222342 -3.662254 0.812322 62.095293 26.288722 36.021240 179.058102 80.619977 -179.967539 3.326275 4.196202 0.136961 0.016325 -0.503962 -0.000000 0.000000 0.000000 0.000000 0.000000 0.000000 0.000000 
-0.590203 16.939786 -1.154283 27.370411 84.268153 46.868895 -8.922271 1.146546 2.963903 -14.945596 1.097925 -41.650251 -2.868959 0.577280 27.893587 0.421455 0.522526 -6.870137 0.081400 0.000000 -21.817100 11.960939 -3.861715 -0.352115 2.663432 -12.521414 -16.089681 0.075953 -3.110435 45.886307 -0.455782 1.793902 11.207937 0.707300 -0.000000 -69.012900 -9.377501 -2.425914 -3.989047 -2.364444 -1.810495 -3.692905 -5.714421 -1.877007 -0.343338 14.977574 -9.253570 -6.851754 -1.967258 -0.154798 0.137458 0.000000 0.000000 0.000000 -5.387753 10.797279 1.037429 -64.432189 16.013444 8.824622 -0.294596 -85.997397 -0.055191 18.688388 5.216315 0.854701 -0.269970 0.111515 0.000000 0.000000 0.000000 0.000000 0.000000 0.000000 0.000000 11.172408 -3.675884 0.725055 62.655876 25.951459 35.645265 179.113315 80.908095 -179.971833 2.802353 3.790754 0.105107 0.026423 -0.496500 -0.000000 0.000000 0.000000 0.000000 0.000000 0.000000 0.000000 
-0.428610 16.964778 -1.140933 25.987445 83.514737 45.241770 -8.910823 1.197917 2.817157 -15.151881 1.372698 -40.345201 -2.874784 0.493761 27.520036 0.570298 1.294637 -7.636749 0.048600 -0.000000 -23.153100 12.018681 -3.595654 -0.411918 1.978632 -12.216181 -16.974444 -0.156801 -3.198420 47.935820 -0.908934 -2.089865 10.357674 -0.450500 -0.000000 -64.957900 -9.425097 -2.345340 -3.773146 -2.385603 -1.721532 -3.660757 -5.782923 -1.785049 -0.381184 15.009059 -9.265261 -6.790067 -1.965427 -0.154879 0.147374 0.000000 0.000000 0.000000 -5.884523 10.676729 1.105467 -63.561932 14.270201 9.677808 -0.346753 -84.598996 -0.055651 18.694075 5.463501 0.896552 -0.269025 0.109320 0.000000 0.000000 0.000000 0.000000 0.000000 0.000000 0.000000 11.139914 -3.695937 0.641484 63.169852 25.559625 35.300780 179.171341 81.207609 -179.976589 2.203728 3.441809 0.075565 0.037945 -0.490143 -0.000000 0.000000 0.000000 0.000000 0.000000 0.000000 0.000000 
-0.266657 16.996621 -1.131127 24.117189 82.740099 43.126806 -8.942529 1.247250 2.666149 -15.282861 1.804409 -38.954432 -2.891608 0.391008 26.814990 0.702256 2.002640 -8.236873 0.007400 -0.000000 -24.538100 12.024228 -3.336908 -0.433493 1.445965 -11.761690 -17.822223 -0.354550 -3.264589 49.743109 -1.379337 -5.795071 9.294855 -1.488100 0.000000 -60.054400 -9.365468 -2.236030 -3.592643 -2.384410 -1.613014 -3.636032 -5.845798 -1.674160 -0.414171 15.028880 -9.283153 -6.719129 -1.969034 -0.155650 0.161724 0.000000 0.000000 0.000000 -6.297890 10.518364 1.160642 -62.907745 12.535620 10.459903 -0.399170 -83.249500 -0.056020 18.529430 5.622153 0.914699 -0.266366 0.109629 0.000000 0.000000 0.000000 0.000000 0.000000 0.000000 0.000000 11.124974 -3.718564 0.565171 63.611765 25.132110 35.000224 179.228722 81.503173 -179.981501 1.572035 3.169760 0.049831 0.049937 -0.485199 -0.000000 0.000000 0.000000 0.000000 0.000000 0.000000 0.000000 
